<svg version="1.2" baseProfile="tiny-ps" xmlns="http://www.w3.org/2000/svg" viewBox="0 0 242 332" width="242" height="332"><title>normal</title><style>tspan { white-space:pre }.shp0 { fill: #000000 } .shp1 { fill: #ffffff } </style><g ><path fill-rule="evenodd" class="shp0" d="M47.5 0.04C49.7 0 52.07 0.54 52.77 1.23C53.46 1.93 54.03 3.96 54.02 5.75C54 8.47 53.23 9.56 49.25 12.43C46.64 14.31 42.48 17.92 40 20.44C36.76 23.75 35.99 25.02 37.25 25.01C38.21 25.01 40.85 26.69 43.1 28.75C45.36 30.81 48 33.85 48.98 35.5C49.96 37.15 51.38 40.87 52.13 43.78C53.18 47.83 53.85 48.9 55 48.38C55.83 48.01 59.42 46.68 63 45.43C66.58 44.17 74.22 42.39 80 41.45C87.92 40.18 93.93 39.9 104.5 40.32C113.52 40.67 121.17 41.57 126 42.83C130.13 43.9 136.65 46.22 140.5 47.97C144.35 49.72 150.2 53.01 153.5 55.27C156.8 57.54 162.09 61.89 165.26 64.94C168.43 68 171.43 71.85 171.93 73.5C172.42 75.15 173.59 79.2 174.52 82.5C175.45 85.8 176.87 90.3 177.68 92.5C178.49 94.7 180.26 97.63 181.6 99C183.59 101.03 184 102.35 183.78 106C183.56 109.46 183.01 110.73 181.36 111.5C179.42 112.4 179.14 113.58 178.53 123.5C178 132.02 177.3 135.69 175.42 139.75C174.09 142.64 173 145.45 173 146C173 146.55 171.88 149.25 170.5 152C168.71 155.58 168.33 157.21 169.16 157.75C169.99 158.29 170.11 160.94 169.58 167C169.18 171.68 168.32 176.08 167.67 176.79C167.03 177.51 165.15 178.09 163.5 178.09C161.85 178.09 159.82 177.34 159 176.42C158.18 175.5 156.38 173.94 155 172.96C152.56 171.21 152.35 171.23 146 174.05C139.82 176.8 139.67 176.95 143 176.98C144.93 177 148.19 177.46 150.25 178.01C152.31 178.55 154.56 179.81 155.25 180.79C155.94 181.78 158.3 183.1 160.5 183.74C162.7 184.37 166.97 186.21 175.5 190.74L182 185.41C185.57 182.48 191.15 179.05 194.4 177.79C198.03 176.38 200.57 174.73 201.01 173.5C201.41 172.4 202.06 168.8 202.45 165.5C202.94 161.44 203.88 158.76 205.34 157.22C207.01 155.47 208.59 154.95 212.25 154.97C216.29 155 217.37 155.45 219.5 158C220.88 159.65 222 162.13 222 163.5C222 165.86 222.34 166.01 227.97 166.25C233.4 166.48 234.3 166.85 237.72 170.27C241.45 173.99 241.5 174.13 241.5 181.91C241.5 188.39 241.14 190.18 239.5 192C237.69 193.99 236.87 194.14 231 193.57C227.43 193.23 221.35 192.69 217.5 192.37C211.38 191.87 209.94 192.1 206 194.2C203.53 195.52 199.25 197.91 196.5 199.52C193.75 201.13 187.9 205.51 183.5 209.26C177.73 214.18 174.73 216.07 172.75 216.04C171.24 216.02 167.75 215.1 165 214C161.39 212.56 160 212.35 159.98 213.25C159.98 213.94 158.51 215.97 156.73 217.77C153.95 220.58 152.8 221.04 148.5 221.06C145.2 221.08 142.99 220.55 142 219.5C141.18 218.63 140.22 218.27 139.87 218.71C139.52 219.14 138.68 221.3 138 223.5C136.95 226.9 137.02 228.32 138.51 233C139.47 236.03 140.88 239.74 141.63 241.25C142.38 242.76 143 245.57 143 247.5C143 250.06 143.81 251.81 146 254C148.37 256.37 149.01 257.9 149.04 261.25C149.07 263.87 148.48 266.08 147.51 267C146.08 268.36 146.11 268.68 147.85 270.5C148.9 271.6 150.43 273.85 151.25 275.5C152.06 277.15 153.3 280.98 154 284C154.7 287.02 155.04 291.52 154.75 294C154.47 296.48 153.56 300.07 152.73 302C151.91 303.93 150.32 307.52 149.21 310C147.95 312.81 143.96 317.59 130 331L122.28 330.75C115.16 330.52 114.45 330.3 113.28 328C112.58 326.63 111.54 325.05 110.98 324.5C110.42 323.95 109.97 322.26 109.98 320.75C109.99 319.24 110.99 316.31 112.2 314.25C113.41 312.19 115.54 308.95 116.95 307.06C118.56 304.88 119.64 301.93 119.87 299.06C120.11 296.06 119.77 294.09 118.87 293.3C117.98 292.51 116.18 292.34 113.73 292.8C110.36 293.43 109.97 293.81 109.99 296.5C110.01 298.15 109.12 302.2 108.02 305.5C106.64 309.65 104.41 313.3 100.76 317.36C97.87 320.58 94.51 323.73 93.31 324.36C92.1 324.99 88.95 326.83 86.31 328.46C82.84 330.59 79.82 331.54 75.5 331.88C71.01 332.23 68.81 331.93 66.75 330.67C64.59 329.36 64 328.25 64 325.5C64 323.57 65.14 319.64 66.54 316.75C67.94 313.86 69.44 310.82 69.88 310C70.33 309.18 71.65 306.48 72.83 304C74.51 300.46 75.04 297.16 75.67 277.5L72.09 277.85C69.93 278.06 68.03 277.67 67.31 276.85C66.66 276.11 65.98 271.9 65.5 259.5L60.5 271.85C57.75 278.64 54.87 284.71 54.1 285.35C53.16 286.11 45.13 286.64 7.5 287.31L5.74 284.9C4.78 283.58 3.97 281.15 3.96 279.5C3.94 277.85 4.92 275.15 6.13 273.5C7.34 271.85 9.72 269.03 11.42 267.23C14.48 263.99 14.57 263.96 24 263.96C30.84 263.97 34.06 264.38 35.5 265.45C36.6 266.27 37.84 266.95 38.25 266.97C38.66 266.99 38.99 266.21 38.99 265.25C38.98 264.29 40.04 260.8 41.35 257.5C42.66 254.2 44.02 250.26 44.37 248.75C44.9 246.43 44.57 245.8 42.25 244.72C39.83 243.59 39.51 242.9 39.57 238.97C39.62 235.6 40.55 233.08 43.32 228.75C45.34 225.59 46.98 222.66 46.96 222.25C46.94 221.84 48.45 219.25 50.32 216.5C52.19 213.75 54.5 209.25 55.45 206.5C56.39 203.75 57.58 200.71 58.08 199.75C58.79 198.4 58.6 198.01 57.25 198.04C56.29 198.07 55 197.51 54.38 196.79C53.77 196.08 52.27 192.35 51.05 188.5C49.83 184.65 48.06 180.6 47.1 179.5C46.15 178.4 44.67 176.38 43.82 175C42.97 173.63 38.05 167.98 32.89 162.47C26.23 155.35 22.42 150.26 19.78 144.97C17.03 139.47 15.76 135.26 14.93 129C14.28 124.15 14.09 116.85 14.47 112C14.84 107.33 15.75 100.58 16.5 97C17.24 93.42 18.85 87.8 20.07 84.5C21.3 81.2 23.69 76.47 25.39 74C27.09 71.53 31.19 66.66 40.5 56.9L35.5 51.9C32.35 48.75 27.54 45.47 22.5 43.05C18.1 40.92 11.8 38.39 8.5 37.4C5.2 36.42 1.92 35.14 1.21 34.56C0.49 33.98 -0.07 31.7 -0.04 29.5C0 25.87 0.67 24.86 7.27 18.5C11.92 14.01 17.04 10.26 21.51 8.04C25.36 6.14 31.88 3.58 36 2.35C40.13 1.11 45.3 0.08 47.5 0.04ZM65.5 189.93C72.05 183.4 73.85 181.45 73.73 181.38C73.6 181.32 71.88 180.97 69.89 180.61L66.28 179.95L65.5 189.93ZM75.54 240.5C74.7 242.15 73.99 245.75 73.96 248.5C73.92 252.54 74.16 253.27 75.21 252.31C76.01 251.57 76.36 249.5 76.12 246.81C75.89 244.14 76.37 241.26 77.37 239.25C78.27 237.46 79 235.1 79 234C79 232.9 78.55 232 78 232C77.45 232 77.01 233.24 77.03 234.75C77.05 236.26 76.38 238.85 75.54 240.5Z" /><path fill-rule="evenodd" class="shp1" d="M47.75 5.05C48.44 5.02 46.86 6.75 44.25 8.88C41.64 11.02 37.61 14.73 35.31 17.13C33 19.54 30.64 22.74 30.06 24.25C29.48 25.76 29 27.68 29 28.5C29 29.56 30.1 30.01 32.75 30.03C35.83 30.05 37.22 30.81 40.57 34.28C43.26 37.08 45.19 40.35 46.29 44C47.2 47.02 48.18 52.09 48.47 55.25C48.76 58.41 48.77 61 48.5 61C48.23 61 47.1 58.98 46 56.5C44.9 54.02 41.64 49.72 38.75 46.93C35.58 43.88 30.33 40.34 25.5 38.01C21.1 35.88 14.69 33.32 11.25 32.32C7.81 31.32 5 30.05 5.01 29.5C5.01 28.95 7.84 25.8 11.29 22.5C14.93 19.02 20.5 15.05 24.54 13.04C28.37 11.14 34.88 8.58 39 7.35C43.13 6.11 47.06 5.08 47.75 5.05ZM102.5 45.5C110.99 45.76 118.1 46.57 123 47.84C127.13 48.91 133.65 51.22 137.5 52.97C141.35 54.72 147.2 58.01 150.5 60.27C153.8 62.54 158.65 66.44 161.27 68.95C163.89 71.45 166.44 74.85 166.93 76.5C167.42 78.15 168.59 82.2 169.53 85.5C170.47 88.8 171.86 93.3 172.64 95.5C173.41 97.7 175.16 100.74 176.52 102.25C177.88 103.76 179 105.45 179 106C179 106.55 178.32 107 177.5 107C176.68 107 175.78 106.33 175.5 105.5C175.2 104.61 173.78 104 172 104C170.35 104 169 104.45 169 105C169 105.64 165.66 105.78 159.75 105.39C154.66 105.05 147.13 103.9 143 102.83C138.88 101.76 132.51 99.45 122.21 94.5L121.68 84C121.38 78.22 120.48 71.92 119.68 70C118.89 68.08 116.6 65.26 111 61L114.67 68.75C118.09 75.97 118.34 77.15 118.36 86C118.38 91.22 117.96 97.69 117.44 100.36C116.92 103.04 116.16 105.4 115.75 105.61C115.34 105.83 114.98 106.79 114.96 107.75C114.94 108.71 112.75 115.13 105.26 134.5L104.67 125C104.29 118.86 103.16 112.67 101.48 107.5C100.04 103.1 98.44 99.05 97.92 98.5C97.4 97.95 96.96 96.83 96.94 96C96.93 95.17 94.91 93.04 92.46 91.25C90.01 89.46 87.33 88 86.5 88C85.67 88 85 88.67 85 89.5C85 90.33 86.69 92.35 92.5 97.01L89.5 99.55C87.85 100.94 81.33 104.61 75 107.7C68.67 110.79 59.56 114.37 54.75 115.66C49.94 116.95 45.55 118 45 118C44.33 118 44.33 116.92 45 114.75C45.55 112.96 46 109.92 45.99 104.5L44.2 107.5C43.22 109.15 41.76 112.42 40.96 114.77C40.16 117.11 38.94 119.25 38.25 119.52C37.56 119.78 37 120.67 37 121.5C37 122.67 37.81 122.87 40.75 122.39C42.81 122.06 44.95 121.6 45.5 121.38C46.13 121.13 46.5 125.14 46.51 132.24C46.52 138.43 46.9 145.97 47.37 149C47.9 152.47 49.35 156.16 51.31 159C53.01 161.47 55.48 166.2 56.79 169.5C58.1 172.8 59.59 175.95 60.1 176.5C60.62 177.05 60.99 179.3 60.94 181.5C60.89 183.7 60.32 187.27 58.5 193.36L56 185.55C54.63 181.25 53.16 177.57 52.75 177.37C52.34 177.17 50.79 175.09 49.31 172.75C47.84 170.41 43 164.76 38.56 160.19C34.13 155.62 28.59 148.64 26.25 144.69C23.92 140.74 21.47 135.03 20.82 132C20.17 128.97 19.67 122.22 19.72 117C19.77 111.78 20.5 104.35 21.33 100.5C22.17 96.65 23.85 90.8 25.07 87.5C26.3 84.2 28.68 79.47 30.37 77C32.06 74.53 35.84 70.03 38.76 67C43.09 62.52 44.26 61.78 45.03 63C45.54 63.83 45.98 65.51 45.98 66.75C45.99 67.99 46.56 68.99 47.25 68.98C47.94 68.98 49.08 68.64 49.79 68.23C50.5 67.83 51.4 65.04 51.79 62.03C52.45 56.98 52.8 56.39 56.5 54.3C58.7 53.06 63.42 51.12 67 50C70.58 48.88 77.1 47.32 81.5 46.53C86.74 45.6 93.99 45.25 102.5 45.5ZM122.02 99C122.56 99 125.36 100.18 128.25 101.62C131.14 103.06 137.1 105.13 141.5 106.21C146.85 107.53 153.39 108.24 172.95 108.5L173.58 111.5C173.92 113.15 173.88 118.33 173.49 123C173.1 127.68 172.16 132.85 171.39 134.5C170.63 136.15 168.99 140.3 167.75 143.72C166.51 147.13 163.7 152.4 161.5 155.41C159.3 158.43 155.47 162.18 153 163.75C150.53 165.33 145.8 167.81 142.5 169.27C139.2 170.73 133.13 172.38 129 172.94C124.88 173.49 111.15 174.47 98.5 175.1C81.36 175.96 74.03 175.97 69.75 175.13C64.07 174.01 63.97 173.93 61.16 168.25C59.6 165.09 57.16 160.25 55.75 157.5C54.33 154.75 52.17 149.35 50.95 145.5C49.05 139.51 48.84 137.34 49.47 130.5C49.88 126.1 50.38 122.05 50.58 121.5C50.78 120.95 54.22 119.63 58.22 118.57C62.23 117.52 70.22 114.43 76 111.72C81.78 109 88.41 105.48 95 101L96.35 104.25C97.09 106.04 98.55 110.2 99.6 113.5C101.15 118.42 101.45 122.06 101.24 133.75C101.06 144.6 101.3 148.01 102.25 148.03C102.94 148.04 104.49 145.9 105.71 143.28C106.93 140.65 109.9 133.32 112.32 127C114.74 120.67 117.41 113.03 118.25 110C119.09 106.97 120.06 103.26 120.41 101.75C120.75 100.24 121.47 99 122.02 99Z" /><path class="shp0" d="M125 117.5C125 118.33 125.67 119 126.5 119C127.61 119 128 120.17 128 123.5C128 126.17 128.61 128.61 129.5 129.5C130.32 130.32 132.57 131 134.5 131C136.86 131 138.66 130.27 140.02 128.75C141.13 127.51 142.03 125.6 142.02 124.5C141.99 122.86 142.75 123.26 146.25 126.73C149.68 130.15 150.26 131.21 149.23 132.23C148.54 132.93 147.96 135.07 147.95 137C147.94 138.98 148.82 141.7 149.97 143.25C151.08 144.76 152.68 146 153.5 146C154.32 146 155 145.32 155 144.5C155 143.68 153.99 141.61 152.75 139.92C150.66 137.05 150.62 136.75 152.21 135.67C153.15 135.03 153.94 133.26 153.96 131.75C153.99 129.84 152.71 127.66 149.75 124.61C147.41 122.2 143.59 119.27 141.25 118.11C138.35 116.67 135.1 116 131 116C126.33 116 125 116.33 125 117.5ZM71.5 120.16C69.3 121.3 65.59 124.2 63.25 126.61C60.29 129.66 59.01 131.84 59.04 133.75C59.06 135.26 59.85 137.03 60.79 137.67C62.38 138.75 62.34 139.05 60.25 141.92C59.01 143.61 58 145.68 58 146.5C58 147.32 58.67 148 59.5 148C60.33 148 61.92 146.76 63.03 145.25C64.18 143.7 65.06 140.98 65.05 139C65.04 137.07 64.46 134.96 63.77 134.29C62.75 133.32 62.79 132.78 64 131.52C65.35 130.11 65.65 130.28 67 133.23C68.31 136.1 69.02 136.53 72.75 136.75C76.65 136.98 77.13 136.73 78.63 133.75C79.67 131.66 80.12 128.81 79.88 125.76L79.5 121.02C86.86 121 88 120.6 88 119.5C88 118.32 86.66 118.01 81.75 118.04C77.45 118.07 74.25 118.74 71.5 120.16Z" /><path class="shp1" d="M131 122C131 123.65 131.68 125.67 132.5 126.5C133.32 127.32 134.56 127.78 135.25 127.52C135.94 127.26 137.18 125.86 138 124.42C139.38 122.01 139.35 121.69 137.5 120.38C136.4 119.6 134.49 118.97 133.25 118.98C131.42 119 131 119.56 131 122ZM71 124.67C69.63 125.54 68.6 126.98 68.71 127.87C68.82 128.77 69.83 130.63 70.94 132L72.97 134.5C76.06 130.63 76.97 128.94 76.98 128.25C76.99 127.56 76.55 126.1 76 125C75.45 123.9 74.66 123.02 74.25 123.05C73.84 123.08 72.38 123.81 71 124.67Z" /><path class="shp0" d="M103.58 162.25C101.41 164.05 100.62 164.25 99.68 163.23C99.03 162.54 97.71 161.97 96.75 161.98C95.79 161.99 95 162.68 95 163.5C95 164.32 96.01 165.68 97.25 166.51C98.49 167.34 100.4 168.02 101.5 168.03C102.6 168.04 104.51 166.91 105.75 165.52C106.99 164.14 108 162.32 108 161.5C108 160.68 107.62 160 107.15 160C106.69 160 105.08 161.01 103.58 162.25Z" /><path fill-rule="evenodd" class="shp1" d="M212.11 160C213.15 160 214.7 161.01 215.55 162.25C216.79 164.06 216.89 165.28 216.05 168.5C215.48 170.7 215.01 172.84 215.01 173.25C215 173.66 216.01 174.02 217.25 174.04C218.49 174.07 220.18 173.34 221 172.43C222.15 171.16 223.56 170.9 227 171.33C230.21 171.73 232.22 172.69 234 174.67C235.92 176.81 236.5 178.55 236.5 182.18C236.5 184.77 235.93 187.48 235.24 188.2C234.21 189.26 233.04 189.27 228.99 188.25C226.24 187.56 220.18 187 215.5 187C208.01 187 206.38 187.34 201.75 189.88C198.86 191.47 194.65 193.83 192.4 195.13C190.14 196.44 185.46 199.97 182 203C178.53 206.03 174.98 209.02 174.1 209.65C172.85 210.55 171.4 210.35 167.5 208.78C164.75 207.66 160.25 205.94 157.5 204.95C153.55 203.52 152.34 202.55 151.75 200.32C151.31 198.69 151.52 195.45 152.25 192.67C153.46 188 153.61 187.85 156.5 188.46C158.15 188.81 162.4 190.53 165.95 192.29C169.68 194.15 172.53 196.24 172.7 197.25C172.87 198.21 173.45 199 174 199C174.55 199 178.71 195.87 183.25 192.04C189.08 187.11 193.48 184.33 198.25 182.54C201.96 181.14 205.2 179.66 205.44 179.25C205.68 178.84 206.42 174.9 207.07 170.5C207.73 166.1 208.7 161.94 209.24 161.25C209.78 160.56 211.07 160 212.11 160ZM164.73 161.38C164.94 161.48 164.79 164.03 163.65 172.5L161.33 170.25C160.05 169.01 158.44 168.01 157.75 168.03C157.06 168.04 158.26 166.51 160.42 164.63C162.57 162.74 164.51 161.28 164.73 161.38ZM123.05 180C124.12 180 126.24 180.52 127.75 181.15C129.26 181.78 133.2 182.19 136.5 182.07C139.8 181.94 144.41 182.33 151 184L149.49 189.25C148.66 192.14 147.65 199.32 146.5 215.9L144.3 213.7C143.1 212.49 142.31 210.94 142.55 210.25C142.83 209.49 142.12 209 140.75 209.01C138.83 209.02 138.35 208.26 137.5 203.76C136.74 199.75 136.03 198.41 134.5 198.11C132.76 197.77 132.59 198.09 133.17 200.61C133.54 202.2 133.99 204.14 134.17 204.93C134.35 205.72 133.26 206.96 131.75 207.68C130.24 208.41 128.99 209.79 128.98 210.75C128.96 212.2 129.47 212.37 131.98 211.75C134.47 211.13 135 211.31 135.02 212.75C135.03 213.71 134.35 216.53 133.5 219C132.65 221.47 131.96 225.3 131.95 227.5C131.95 229.7 132.64 233.19 133.48 235.25C134.44 237.62 134.62 239.09 133.96 239.25C133.39 239.39 134.08 241.07 135.48 243C136.88 244.93 138.04 246.95 138.05 247.5C138.06 248.05 137.11 247.6 135.94 246.5C133.94 244.62 133.14 244.56 122.66 245.43C116.52 245.95 104.9 246.4 96.83 246.43C88.76 246.47 81.9 246.16 81.58 245.75C81.26 245.34 81.67 243.65 82.5 242C83.33 240.35 84 236.53 84 233.5C84 230.47 83.55 228 83 228C82.44 228 82 225.17 82 221.5C82 217.93 81.55 214.1 81 213C80.45 211.9 79.44 211 78.75 211C77.97 210.99 77.03 213.88 76.23 218.75C75.53 223.01 74.53 226.95 74.02 227.5C73.4 228.16 72.65 228.07 71.79 227.24C70.75 226.22 70.26 226.27 69.25 227.49C68.56 228.32 68.22 229.45 68.5 230C68.78 230.55 69.67 231 70.5 231C71.33 231 72.01 231.79 72.03 232.75C72.05 233.71 71.38 235.85 70.54 237.5C69.59 239.37 69.01 243.24 69.01 247.75C69 252.87 68.63 255.01 67.75 255.02C67.06 255.03 65.04 254.36 63.25 253.52C61.17 252.55 60 251.28 60 250C60 248.4 59.5 248.1 57.5 248.5C55.52 248.9 54.17 248.12 51.01 244.75C48.82 242.41 47.02 240.16 47.01 239.75C47.01 239.34 46.28 239.34 45.4 239.75C44.1 240.36 43.94 240.12 44.59 238.5C45.02 237.4 46.87 234.14 48.69 231.25C50.51 228.36 51.98 225.66 51.96 225.25C51.94 224.84 53.45 222.25 55.32 219.5C57.19 216.75 59.5 212.25 60.45 209.5C61.4 206.75 62.86 203.15 63.7 201.5C64.54 199.85 68.21 195.56 71.86 191.97C78.33 185.61 78.63 185.45 83.5 185.57C87.96 185.69 88.99 186.17 93 190.03C95.47 192.41 98.52 195.74 99.77 197.43C101.38 199.62 102.03 201.87 102.02 205.25C102.01 207.86 102.56 211.14 103.25 212.53C103.94 213.92 105.06 215.04 105.75 215.03C106.44 215.01 107 214.1 107 213C107 211.9 106.49 209.99 105.86 208.75C104.93 206.91 105.09 205.96 106.75 203.5C107.86 201.85 110.45 197.35 112.5 193.5C114.56 189.65 117.33 185.04 118.66 183.25C120 181.46 121.97 180 123.05 180ZM113.25 180.19C113.66 180.09 114 180.22 114 180.5C114 180.78 112.09 184.58 105.5 196.89L101.89 192.69C99.91 190.39 97.09 187.04 93 182L96.25 181.5C98.04 181.22 102.42 180.86 106 180.69C109.58 180.52 112.84 180.3 113.25 180.19Z" /><path class="shp0" d="M80.97 206.75C80.95 208.26 81.85 210.74 82.97 212.25C84.08 213.76 85.67 215 86.5 215C87.33 215 88 214.11 88 213C88 211.9 87.55 211 87 211C86.45 211 85.44 209.42 84.75 207.49C84.06 205.55 82.94 203.98 82.25 203.99C81.56 203.99 80.98 205.24 80.97 206.75Z" /><path class="shp1" d="M149.97 211.75L149.95 216.5C153.85 212.63 155.21 210.71 155.49 209.75C155.79 208.73 155.37 207.79 154.5 207.5C153.68 207.22 152.32 207 151.5 207C150.38 207 149.99 208.21 149.97 211.75ZM116.5 249.06C114.3 249.51 105.86 249.91 97.75 249.94C85.33 249.99 83 250.24 83 251.5C83 252.32 82.44 253.56 81.75 254.25C81.06 254.94 78.38 257.07 75.78 259C73.19 260.93 71.05 262.84 71.03 263.25C71.01 263.66 71.9 263.77 73 263.5C74.1 263.23 75 263.45 75 264C75 264.55 74.55 265 74 265C73.45 265 73 265.9 73 267C73 268.1 72.55 269 72 269C71.45 269 70.99 270.01 70.97 271.25C70.94 273.37 71.04 273.4 72.72 271.82C73.7 270.89 76.75 269.6 79.5 268.96C82.25 268.31 87.2 266.89 90.5 265.79C93.8 264.7 98.53 263.61 101 263.36C103.47 263.11 105.95 263.33 106.5 263.84C107.05 264.34 110.2 265.53 113.5 266.46C118 267.74 121.56 268.02 127.75 267.58C134.48 267.11 135.91 266.72 135.5 265.5C135.12 264.35 135.98 263.94 139.24 263.75C142.05 263.58 143.59 262.99 143.81 262C143.99 261.18 141.41 257.69 138.07 254.25L132 248C123.09 248.18 118.7 248.6 116.5 249.06ZM47.17 257.73C45.89 261.45 44.43 266.41 43.92 268.75C43.38 271.25 42.28 273.28 41.25 273.68C40.17 274.1 37.68 273.33 34.75 271.68C31.05 269.59 28.66 269 23.95 269C19.01 269 17.51 269.41 15.69 271.25C14.48 272.49 12.47 274.74 11.24 276.25C10.01 277.76 9.22 279.68 9.5 280.5C9.87 281.61 11.56 282 16 282L22 282C22 277.13 22.94 275.06 24.5 273.5C26.85 271.15 27.24 271.08 31 272.25C33.2 272.94 35 274.06 35 274.75C35 275.51 33.35 276.1 30.75 276.25C26.91 276.48 26.48 276.77 26.25 279.25C26 281.98 26.04 282 32.25 282.01C35.69 282.01 41.2 281.75 44.5 281.42L50.5 280.83C59.74 258.68 60.27 256.72 59 255.95C58.17 255.44 57.16 255.02 56.75 255.02C56.34 255.01 56 254.32 56 253.5C56 252.68 55.44 251.99 54.75 251.99C54.06 251.98 52.6 251.74 51.5 251.47C49.79 251.03 49.16 251.95 47.17 257.73ZM99 267.02C98.17 267.57 95.25 268.65 92.5 269.43C89.75 270.2 85.92 271.1 84 271.42L80.5 272C80.5 287.37 80.85 292.21 81.28 292.67C81.71 293.13 82.04 294.74 82.03 296.25C82.01 297.76 81.55 299 81 299C80.45 299 80 299.9 80 301C80 302.1 79.1 304.46 78 306.25C76.91 308.04 76.01 309.84 76 310.25C76 310.66 76.79 310.99 77.75 310.98C78.71 310.97 81.97 312.78 85 315C88.03 317.22 90.72 319.03 91 319.01C91.28 318.99 93.64 316.62 96.26 313.74C99.62 310.03 101.63 306.6 103.13 302C104.57 297.57 105.05 294.3 104.62 291.75C104.25 289.5 104.4 288 105 288C105.59 288 106.01 284.23 106.03 278.75C106.06 271.16 105.75 269.19 104.28 267.78C103.3 266.83 102.05 266.05 101.5 266.04C100.95 266.04 99.83 266.48 99 267.02ZM109 278.5L109 288C114.81 287.02 116.72 286.59 117 286.42C117.28 286.25 116.82 283.49 115.99 280.3C115.16 277.11 113.7 273.26 112.74 271.75C111.78 270.24 110.55 269 110 269C109.4 269 109 272.83 109 278.5ZM122.5 270.7L114.5 271.01C122.74 278.33 122.94 278.77 122.97 284.25C122.99 287.41 123.45 290.23 124 290.5C124.55 290.77 125 294.04 124.99 297.75C124.99 301.83 124.4 305.59 123.49 307.25C122.09 309.83 122.12 310 124 310C125.1 310 128.47 311.13 131.5 312.5C134.53 313.88 137.34 315.01 137.75 315.03C138.16 315.04 139.46 314.03 140.63 312.78C141.8 311.52 143.52 308.7 144.46 306.5C145.4 304.3 146.52 301.82 146.96 301C147.4 300.18 148.26 297.59 148.88 295.25C149.71 292.09 149.71 289.79 148.85 286.25C148.22 283.64 146.87 279.81 145.85 277.75C144.83 275.69 143.27 274 142.37 274C141.47 274 140.23 273.1 139.62 272C138.75 270.45 137.6 270.04 134.5 270.2C132.3 270.31 126.9 270.54 122.5 270.7ZM117.22 317C115.35 320.38 115.23 321.08 116.5 321.5C117.33 321.77 118 322.9 118 324C118 325.68 118.68 326.01 122.25 326.04C125.8 326.07 127.24 325.43 131 322.12C135.08 318.54 135.31 318.1 133.5 317.44C132.4 317.03 129.59 315.87 127.25 314.85C124.91 313.83 122.2 313 121.22 313C120.18 313 118.52 314.67 117.22 317ZM73.08 316.57C72.6 317.98 72.16 319.55 72.1 320.07C72.05 320.58 71.55 321 71 321C70.45 321 69.79 322.01 69.54 323.25C69.29 324.49 69.63 325.83 70.29 326.23C70.96 326.64 72.63 326.97 74 326.98C75.38 326.99 78.84 325.76 81.69 324.25L86.88 321.5C82.71 318.45 81.28 317.28 81 316.93C80.72 316.59 79.49 315.78 78.25 315.15C77.01 314.52 75.54 314 74.98 314C74.42 314 73.56 315.15 73.08 316.57Z" /></g></svg>